<svg height="494" width="720" xmlns="http://www.w3.org/2000/svg">
<rect height="494" fill="#555" width="720"></rect>
<text fill="#7f7" font-family="Courier New" font-size="12" xml:space="preserve">
<tspan x="10" y="26">39 megabytes installed</tspan>
<tspan x="10" y="42"></tspan>
<tspan x="10" y="58">node_modules</tspan>
<tspan x="10" y="74">└─┬ internet-of-things@0.4.1 </tspan>
<tspan x="10" y="90">  ├─┬ gitbook-plugin-advanced-emoji@0.1.9 </tspan>
<tspan x="10" y="106">  │ └── emojify.js@1.1.0 </tspan>
<tspan x="10" y="122">  ├─┬ gitbook-plugin-multipart@0.3.0 </tspan>
<tspan x="10" y="138">  │ └─┬ cheerio@0.17.0 </tspan>
<tspan x="10" y="154">  │   ├─┬ CSSselect@0.4.1 </tspan>
<tspan x="10" y="170">  │   │ ├── CSSwhat@0.4.7 </tspan>
<tspan x="10" y="186">  │   │ └── domutils@1.4.3 </tspan>
<tspan x="10" y="202">  │   ├─┬ dom-serializer@0.0.1 </tspan>
<tspan x="10" y="218">  │   │ └── domelementtype@1.1.3 </tspan>
<tspan x="10" y="234">  │   ├── entities@1.1.1 </tspan>
<tspan x="10" y="250">  │   └─┬ htmlparser2@3.7.3 </tspan>
<tspan x="10" y="266">  │     ├── domelementtype@1.3.0 </tspan>
<tspan x="10" y="282">  │     ├── domhandler@2.2.1 </tspan>
<tspan x="10" y="298">  │     ├── domutils@1.5.1 </tspan>
<tspan x="10" y="314">  │     ├── entities@1.0.0 </tspan>
<tspan x="10" y="330">  │     └─┬ readable-stream@1.1.14 </tspan>
<tspan x="10" y="346">  │       ├── core-util-is@1.0.2 </tspan>
<tspan x="10" y="362">  │       ├── inherits@2.0.3 </tspan>
<tspan x="10" y="378">  │       ├── isarray@0.0.1 </tspan>
<tspan x="10" y="394">  │       └── string_decoder@0.10.31 </tspan>
<tspan x="10" y="410">  ├─┬ gitbook-plugin-scripts@1.0.2 </tspan>
<tspan x="10" y="426">  │ ├── lodash@2.4.2 </tspan>
<tspan x="10" y="442">  │ └─┬ tmp@0.0.28 </tspan>
<tspan x="10" y="458">  │   └── os-tmpdir@1.0.2 </tspan>
<tspan x="10" y="474">  └── gitbook-plugin-ungrey@1.2.0</tspan>
</text>
</svg>
